<svg width="256" height="63" viewBox="0 0 256 63" fill="none" xmlns="http://www.w3.org/2000/svg">
<rect y="5.46033" width="52" height="52" rx="16" fill="white"/>
<g clip-path="url(#clip0_7_4715)">
<path d="M30.245 35.7052C32.5894 35.7052 34.4899 33.8047 34.4899 31.4603C34.4899 29.1159 32.5894 27.2154 30.245 27.2154C27.9006 27.2154 26.0001 29.1159 26.0001 31.4603C26.0001 33.8047 27.9006 35.7052 30.245 35.7052Z" fill="#19BCFE"/>
<path fill-rule="evenodd" clip-rule="evenodd" d="M21.7552 44.195C22.881 44.195 23.9607 43.7478 24.7567 42.9517C25.5528 42.1556 26 41.0759 26 39.9501V35.7052H21.7552C20.6293 35.7052 19.5496 36.1524 18.7536 36.9485C17.9575 37.7446 17.5103 38.8243 17.5103 39.9501C17.5103 41.0759 17.9575 42.1556 18.7536 42.9517C19.5496 43.7478 20.6293 44.195 21.7552 44.195Z" fill="#09CF83"/>
<path fill-rule="evenodd" clip-rule="evenodd" d="M21.7552 35.7052H26V27.2154H21.7552C20.6293 27.2154 19.5496 27.6626 18.7536 28.4587C17.9575 29.2548 17.5103 30.3345 17.5103 31.4603C17.5103 32.5861 17.9575 33.6658 18.7536 34.4619C19.5496 35.258 20.6293 35.7052 21.7552 35.7052Z" fill="#A259FF"/>
<path fill-rule="evenodd" clip-rule="evenodd" d="M21.7552 27.2154H26V18.7256H21.7552C20.6293 18.7256 19.5496 19.1728 18.7536 19.9689C17.9575 20.765 17.5103 21.8447 17.5103 22.9705C17.5103 24.0963 17.9575 25.176 18.7536 25.9721C19.5496 26.7682 20.6293 27.2154 21.7552 27.2154Z" fill="#F24E1E"/>
<path fill-rule="evenodd" clip-rule="evenodd" d="M30.245 27.2154H26.0001V18.7256H30.245C31.3708 18.7256 32.4505 19.1728 33.2466 19.9689C34.0426 20.765 34.4899 21.8447 34.4899 22.9705C34.4899 24.0963 34.0426 25.176 33.2466 25.9721C32.4505 26.7682 31.3708 27.2154 30.245 27.2154Z" fill="#FF7262"/>
</g>
<rect x="72" y="0.460327" width="184" height="62" rx="10" fill="white"/>
<path d="M95.06 38.4603V26.9003H93.3L93.96 24.4603H97.5V38.4603H95.06ZM105.352 38.7203C104.538 38.7203 103.798 38.5337 103.132 38.1603C102.465 37.7803 101.888 37.257 101.402 36.5903C100.922 35.9237 100.552 35.1537 100.292 34.2803C100.032 33.4003 99.9016 32.4603 99.9016 31.4603C99.9016 30.4603 100.032 29.5237 100.292 28.6503C100.552 27.7703 100.922 26.997 101.402 26.3303C101.888 25.6637 102.465 25.1437 103.132 24.7703C103.798 24.3903 104.538 24.2003 105.352 24.2003C106.165 24.2003 106.905 24.3903 107.572 24.7703C108.238 25.1437 108.808 25.6637 109.282 26.3303C109.762 26.997 110.132 27.7703 110.392 28.6503C110.658 29.5237 110.792 30.4603 110.792 31.4603C110.792 32.4603 110.658 33.4003 110.392 34.2803C110.132 35.1537 109.762 35.9237 109.282 36.5903C108.808 37.257 108.238 37.7803 107.572 38.1603C106.905 38.5337 106.165 38.7203 105.352 38.7203ZM105.352 36.2803C106.065 36.2803 106.655 36.0537 107.122 35.6003C107.588 35.147 107.935 34.5537 108.162 33.8203C108.388 33.087 108.502 32.3003 108.502 31.4603C108.502 30.5737 108.382 29.767 108.142 29.0403C107.902 28.307 107.548 27.7237 107.082 27.2903C106.615 26.857 106.038 26.6403 105.352 26.6403C104.812 26.6403 104.342 26.7737 103.942 27.0403C103.548 27.3003 103.222 27.657 102.962 28.1103C102.702 28.5637 102.508 29.0803 102.382 29.6603C102.255 30.2337 102.192 30.8337 102.192 31.4603C102.192 32.2937 102.305 33.0803 102.532 33.8203C102.765 34.5537 103.115 35.147 103.582 35.6003C104.055 36.0537 104.645 36.2803 105.352 36.2803ZM116.171 37.4603V33.6803H112.391V31.2403H116.171V27.4603H118.611V31.2403H122.391V33.6803H118.611V37.4603H116.171ZM137.838 24.4603H140.278V38.4603H137.838V32.1803H132.038V38.4603H129.598V24.4603H132.038V29.7403H137.838V24.4603ZM147.127 38.7203C146.207 38.7203 145.367 38.4837 144.607 38.0103C143.854 37.537 143.251 36.9037 142.797 36.1103C142.351 35.3103 142.127 34.427 142.127 33.4603C142.127 32.727 142.257 32.0437 142.517 31.4103C142.777 30.7703 143.134 30.2103 143.587 29.7303C144.047 29.2437 144.581 28.8637 145.187 28.5903C145.794 28.317 146.441 28.1803 147.127 28.1803C148.047 28.1803 148.884 28.417 149.637 28.8903C150.397 29.3637 151.001 30.0003 151.447 30.8003C151.901 31.6003 152.127 32.487 152.127 33.4603C152.127 34.187 151.997 34.867 151.737 35.5003C151.477 36.1337 151.117 36.6937 150.657 37.1803C150.204 37.6603 149.674 38.037 149.067 38.3103C148.467 38.5837 147.821 38.7203 147.127 38.7203ZM147.127 36.2803C147.614 36.2803 148.051 36.1503 148.437 35.8903C148.824 35.6303 149.127 35.287 149.347 34.8603C149.574 34.4337 149.687 33.967 149.687 33.4603C149.687 32.9403 149.571 32.467 149.337 32.0403C149.111 31.607 148.801 31.2637 148.407 31.0103C148.021 30.7503 147.594 30.6203 147.127 30.6203C146.647 30.6203 146.214 30.7503 145.827 31.0103C145.441 31.2703 145.134 31.617 144.907 32.0503C144.681 32.4837 144.567 32.9537 144.567 33.4603C144.567 33.987 144.684 34.4637 144.917 34.8903C145.151 35.317 145.461 35.657 145.847 35.9103C146.241 36.157 146.667 36.2803 147.127 36.2803ZM153.884 38.4603V28.4603H156.324V29.3503C156.664 28.9903 157.071 28.707 157.544 28.5003C158.018 28.287 158.528 28.1803 159.074 28.1803C159.768 28.1803 160.404 28.3437 160.984 28.6703C161.571 28.997 162.038 29.4337 162.384 29.9803C162.738 29.4337 163.204 28.997 163.784 28.6703C164.364 28.3437 165.001 28.1803 165.694 28.1803C166.428 28.1803 167.091 28.3603 167.684 28.7203C168.284 29.0737 168.761 29.5503 169.114 30.1503C169.474 30.7437 169.654 31.407 169.654 32.1403V38.4603H167.214V32.7903C167.214 32.4037 167.118 32.0503 166.924 31.7303C166.738 31.4037 166.484 31.1437 166.164 30.9503C165.851 30.7503 165.498 30.6503 165.104 30.6503C164.711 30.6503 164.354 30.747 164.034 30.9403C163.721 31.127 163.468 31.3803 163.274 31.7003C163.081 32.0203 162.984 32.3837 162.984 32.7903V38.4603H160.544V32.7903C160.544 32.3837 160.451 32.0203 160.264 31.7003C160.078 31.3803 159.824 31.127 159.504 30.9403C159.184 30.747 158.828 30.6503 158.434 30.6503C158.048 30.6503 157.694 30.7503 157.374 30.9503C157.054 31.1437 156.798 31.4037 156.604 31.7303C156.418 32.0503 156.324 32.4037 156.324 32.7903V38.4603H153.884ZM176.063 38.7203C175.143 38.7203 174.303 38.4837 173.543 38.0103C172.789 37.537 172.186 36.9003 171.733 36.1003C171.286 35.3003 171.063 34.417 171.063 33.4503C171.063 32.7237 171.193 32.0437 171.453 31.4103C171.713 30.7703 172.069 30.2103 172.523 29.7303C172.983 29.2437 173.516 28.8637 174.123 28.5903C174.729 28.317 175.376 28.1803 176.063 28.1803C176.843 28.1803 177.556 28.347 178.203 28.6803C178.856 29.007 179.409 29.457 179.863 30.0303C180.316 30.6037 180.646 31.257 180.853 31.9903C181.059 32.7237 181.106 33.4903 180.993 34.2903H173.683C173.776 34.6637 173.929 35.0003 174.143 35.3003C174.356 35.5937 174.626 35.8303 174.953 36.0103C175.279 36.1837 175.649 36.2737 176.063 36.2803C176.489 36.287 176.876 36.187 177.223 35.9803C177.576 35.767 177.869 35.4803 178.103 35.1203L180.593 35.7003C180.186 36.587 179.579 37.3137 178.773 37.8803C177.966 38.4403 177.063 38.7203 176.063 38.7203ZM173.603 32.4603H178.523C178.449 32.0603 178.293 31.7003 178.053 31.3803C177.819 31.0537 177.529 30.7937 177.183 30.6003C176.836 30.407 176.463 30.3103 176.063 30.3103C175.663 30.3103 175.293 30.407 174.953 30.6003C174.613 30.787 174.323 31.0437 174.083 31.3703C173.849 31.6903 173.689 32.0537 173.603 32.4603ZM190.499 43.4603H188.059V28.4603H190.499V29.7303C190.825 29.277 191.225 28.9103 191.699 28.6303C192.179 28.3437 192.739 28.2003 193.379 28.2003C194.112 28.2003 194.795 28.337 195.429 28.6103C196.062 28.8837 196.619 29.2637 197.099 29.7503C197.585 30.2303 197.962 30.787 198.229 31.4203C198.502 32.0537 198.639 32.7337 198.639 33.4603C198.639 34.187 198.502 34.8703 198.229 35.5103C197.962 36.1503 197.585 36.7137 197.099 37.2003C196.619 37.6803 196.062 38.057 195.429 38.3303C194.795 38.6037 194.112 38.7403 193.379 38.7403C192.739 38.7403 192.179 38.6003 191.699 38.3203C191.225 38.0337 190.825 37.6637 190.499 37.2103V43.4603ZM193.349 30.5503C192.842 30.5503 192.389 30.6837 191.989 30.9503C191.589 31.2103 191.275 31.5603 191.049 32.0003C190.822 32.4403 190.709 32.927 190.709 33.4603C190.709 33.9937 190.822 34.4837 191.049 34.9303C191.275 35.3703 191.589 35.7237 191.989 35.9903C192.389 36.2503 192.842 36.3803 193.349 36.3803C193.862 36.3803 194.332 36.2503 194.759 35.9903C195.185 35.7303 195.525 35.3803 195.779 34.9403C196.032 34.4937 196.159 34.0003 196.159 33.4603C196.159 32.927 196.032 32.4403 195.779 32.0003C195.525 31.5603 195.185 31.2103 194.759 30.9503C194.339 30.6837 193.869 30.5503 193.349 30.5503ZM207.986 28.4603H210.426V38.4603H207.986L207.876 37.2203C207.603 37.667 207.239 38.0303 206.786 38.3103C206.339 38.5837 205.809 38.7203 205.196 38.7203C204.456 38.7203 203.763 38.5803 203.116 38.3003C202.469 38.0203 201.899 37.6337 201.406 37.1403C200.919 36.647 200.536 36.077 200.256 35.4303C199.983 34.7837 199.846 34.0903 199.846 33.3503C199.846 32.637 199.976 31.967 200.236 31.3403C200.503 30.7137 200.873 30.1637 201.346 29.6903C201.819 29.217 202.366 28.847 202.986 28.5803C203.606 28.3137 204.273 28.1803 204.986 28.1803C205.646 28.1803 206.236 28.327 206.756 28.6203C207.283 28.9137 207.729 29.287 208.096 29.7403L207.986 28.4603ZM205.136 36.3703C205.656 36.3703 206.116 36.2403 206.516 35.9803C206.916 35.7203 207.229 35.3703 207.456 34.9303C207.683 34.4837 207.796 33.9937 207.796 33.4603C207.796 32.9203 207.683 32.4303 207.456 31.9903C207.229 31.5437 206.913 31.1903 206.506 30.9303C206.106 30.6703 205.649 30.5403 205.136 30.5403C204.623 30.5403 204.153 30.6737 203.726 30.9403C203.306 31.2003 202.969 31.5503 202.716 31.9903C202.469 32.4303 202.346 32.9203 202.346 33.4603C202.346 34.0003 202.473 34.4903 202.726 34.9303C202.979 35.3703 203.316 35.7203 203.736 35.9803C204.163 36.2403 204.629 36.3703 205.136 36.3703ZM219.843 28.4603H222.283V38.6503C222.283 39.3703 222.137 40.0237 221.843 40.6103C221.55 41.2037 221.15 41.7103 220.643 42.1303C220.137 42.557 219.557 42.8837 218.903 43.1103C218.25 43.3437 217.563 43.4603 216.843 43.4603C216.143 43.4603 215.47 43.317 214.823 43.0303C214.177 42.7437 213.603 42.3503 213.103 41.8503C212.61 41.357 212.233 40.7937 211.973 40.1603L214.203 39.1503C214.337 39.517 214.537 39.837 214.803 40.1103C215.077 40.3903 215.39 40.607 215.743 40.7603C216.097 40.9203 216.463 41.0003 216.843 41.0003C217.23 41.0003 217.6 40.947 217.953 40.8403C218.313 40.7337 218.637 40.577 218.923 40.3703C219.21 40.1703 219.433 39.9237 219.593 39.6303C219.76 39.3437 219.843 39.017 219.843 38.6503V37.2403C219.53 37.6803 219.137 38.037 218.663 38.3103C218.19 38.5837 217.643 38.7203 217.023 38.7203C216.303 38.7203 215.63 38.5837 215.003 38.3103C214.377 38.037 213.823 37.6603 213.343 37.1803C212.87 36.6937 212.497 36.1337 212.223 35.5003C211.957 34.867 211.823 34.187 211.823 33.4603C211.823 32.7337 211.957 32.0537 212.223 31.4203C212.497 30.787 212.87 30.2303 213.343 29.7503C213.823 29.2637 214.377 28.8837 215.003 28.6103C215.63 28.337 216.303 28.2003 217.023 28.2003C217.643 28.2003 218.19 28.337 218.663 28.6103C219.137 28.877 219.53 29.2303 219.843 29.6703V28.4603ZM217.053 36.3703C217.567 36.3703 218.02 36.2403 218.413 35.9803C218.813 35.7137 219.127 35.3603 219.353 34.9203C219.58 34.4737 219.693 33.987 219.693 33.4603C219.693 32.927 219.577 32.4403 219.343 32.0003C219.117 31.5603 218.803 31.207 218.403 30.9403C218.01 30.6737 217.56 30.5403 217.053 30.5403C216.553 30.5403 216.097 30.6737 215.683 30.9403C215.27 31.2003 214.94 31.5503 214.693 31.9903C214.447 32.4303 214.323 32.9203 214.323 33.4603C214.323 34.0003 214.447 34.4903 214.693 34.9303C214.94 35.3703 215.27 35.7203 215.683 35.9803C216.097 36.2403 216.553 36.3703 217.053 36.3703ZM229.055 38.7203C228.135 38.7203 227.295 38.4837 226.535 38.0103C225.781 37.537 225.178 36.9003 224.725 36.1003C224.278 35.3003 224.055 34.417 224.055 33.4503C224.055 32.7237 224.185 32.0437 224.445 31.4103C224.705 30.7703 225.061 30.2103 225.515 29.7303C225.975 29.2437 226.508 28.8637 227.115 28.5903C227.721 28.317 228.368 28.1803 229.055 28.1803C229.835 28.1803 230.548 28.347 231.195 28.6803C231.848 29.007 232.401 29.457 232.855 30.0303C233.308 30.6037 233.638 31.257 233.845 31.9903C234.051 32.7237 234.098 33.4903 233.985 34.2903H226.675C226.768 34.6637 226.921 35.0003 227.135 35.3003C227.348 35.5937 227.618 35.8303 227.945 36.0103C228.271 36.1837 228.641 36.2737 229.055 36.2803C229.481 36.287 229.868 36.187 230.215 35.9803C230.568 35.767 230.861 35.4803 231.095 35.1203L233.585 35.7003C233.178 36.587 232.571 37.3137 231.765 37.8803C230.958 38.4403 230.055 38.7203 229.055 38.7203ZM226.595 32.4603H231.515C231.441 32.0603 231.285 31.7003 231.045 31.3803C230.811 31.0537 230.521 30.7937 230.175 30.6003C229.828 30.407 229.455 30.3103 229.055 30.3103C228.655 30.3103 228.285 30.407 227.945 30.6003C227.605 30.787 227.315 31.0437 227.075 31.3703C226.841 31.6903 226.681 32.0537 226.595 32.4603Z" fill="#192252"/>
<defs>
<clipPath id="clip0_7_4715">
<rect width="25.4694" height="25.4694" fill="white" transform="translate(13.2654 18.7256)"/>
</clipPath>
</defs>
</svg>
